<?xml version="1.0"?>
<svg xmlns="http://www.w3.org/2000/svg" xmlns:xlink="http://www.w3.org/1999/xlink" xmlns:svgjs="http://svgjs.com/svgjs" version="1.1" width="512" height="512" x="0" y="0" viewBox="0 0 512 512" style="enable-background:new 0 0 512 512" xml:space="preserve" class=""><g><g xmlns="http://www.w3.org/2000/svg"><path d="m157 390h300c7.03 0 13.117-4.883 14.643-11.746l40-180c.987-4.441-.095-9.091-2.942-12.64s-7.15-5.614-11.7-5.614h-105.001v-72.387l.238.204c2.829 2.425 6.3 3.612 9.755 3.612 4.227 0 8.429-1.778 11.396-5.239 5.392-6.29 4.663-15.759-1.627-21.15l-95-81.429c-5.617-4.815-13.906-4.815-19.523 0l-95 81.429c-6.29 5.391-7.019 14.861-1.627 21.15 5.392 6.291 14.862 7.019 21.15 1.627l.238-.204v72.387h-94.605l-26.35-70.267c-2.195-5.854-7.792-9.733-14.045-9.733h-72c-8.284 0-15 6.716-15 15s6.716 15 15 15h61.605l25.981 69.283 36.54 164.428c-15.944 6.93-27.126 22.825-27.126 41.289 0 23.777 18.54 43.294 41.921 44.883-1.884 5.019-2.921 10.448-2.921 16.117 0 25.364 20.636 46 46 46s46-20.636 46-46c0-5.624-1.019-11.014-2.875-16h103.749c-1.856 4.986-2.875 10.376-2.875 16 0 25.364 20.636 46 46 46s46-20.636 46-46c0-5.624-1.019-11.014-2.875-16h26.876c8.284 0 15-6.716 15-15s-6.716-15-15-15h-300c-8.271 0-15-6.729-15-15s6.729-15 15-15zm56 76c0 8.822-7.178 16-16 16s-16-7.178-16-16 7.178-16 16-16 16 7.178 16 16zm190 0c0 8.822-7.178 16-16 16s-16-7.178-16-16 7.178-16 16-16 16 7.178 16 16zm-111-256v60h-56.574l-6.667-60zm93.241 0-6.667 60h-56.574v-60zm-63.241 150v-60h53.241l-6.667 60zm-30-60v60h-46.574l-6.667-60zm-76.759 60h-46.209l-13.333-60h52.875zm183.518 0 6.667-60h52.875l-13.333 60zm66.209-90h-56.209l6.667-60h62.875zm-212.968-188.101 55-47.143 55 47.143v98.101h-40v-25c0-8.284-6.716-15-15-15s-15 6.716-15 15v25h-40zm-53.425 128.101 6.667 60h-56.209l-13.333-60z" fill="#ffffff" data-original="#000000" style="" class=""/><path d="m297 110h20c8.284 0 15-6.716 15-15s-6.716-15-15-15h-20c-8.284 0-15 6.716-15 15s6.716 15 15 15z" fill="#ffffff" data-original="#000000" style="" class=""/></g></g></svg>
