<?xml version="1.0" encoding="utf-8"?>
<!-- Generator: Adobe Illustrator 24.3.0, SVG Export Plug-In . SVG Version: 6.00 Build 0)  -->
<svg version="1.1" id="Layer_1" xmlns="http://www.w3.org/2000/svg" xmlns:xlink="http://www.w3.org/1999/xlink" x="0px" y="0px"
	 viewBox="0 0 130 105" style="enable-background:new 0 0 130 105;" xml:space="preserve">
<style type="text/css">
	.st0{fill:#FFFFFF;stroke:#00338E;stroke-width:4;stroke-miterlimit:10;}
	.st1{fill:#00338E;}
	.st2{fill:#0E55F4;}
	.st3{fill:url(#SVGID_1_);}
	.st4{fill:url(#SVGID_2_);}
	.st5{fill:url(#SVGID_3_);}
	.st6{fill:url(#SVGID_4_);}
	.st7{fill:url(#SVGID_5_);}
	.st8{fill:url(#SVGID_6_);}
	.st9{fill:url(#SVGID_7_);}
	.st10{fill:url(#SVGID_8_);}
	.st11{fill:url(#SVGID_9_);}
	.st12{fill:url(#SVGID_10_);}
	.st13{fill:url(#SVGID_11_);}
	.st14{fill:url(#SVGID_12_);}
	.st15{fill:url(#SVGID_13_);}
	.st16{fill:url(#SVGID_14_);}
	.st17{fill:url(#SVGID_15_);}
	.st18{fill:url(#SVGID_16_);}
	.st19{fill:none;stroke:#00338E;stroke-width:6;stroke-linecap:round;stroke-miterlimit:10;}
	.st20{fill:#FFFFFF;}
	.st21{fill:none;stroke:#FFFFFF;stroke-linecap:round;stroke-linejoin:round;stroke-miterlimit:10;}
	.st22{opacity:0.3;fill-rule:evenodd;clip-rule:evenodd;fill:#FFFFFF;}
	.st23{fill:none;stroke:#00338E;stroke-linecap:round;stroke-linejoin:round;stroke-miterlimit:10;}
	.st24{opacity:0.3;fill-rule:evenodd;clip-rule:evenodd;fill:#0E55F4;}
</style>
<g>
	<g>
		<g>
			<path class="st20" d="M13.2,58.9h3.7c2.6,0,4.3,1.5,4.3,3.9c0,2.4-1.8,3.9-4.3,3.9h-3.7V58.9z M16.8,64.9c1.3,0,2.2-0.8,2.2-2.1
				c0-1.3-0.9-2.1-2.2-2.1h-1.4v4.3H16.8z"/>
			<path class="st20" d="M22.4,58.9h2.2v7.8h-2.2V58.9z"/>
			<path class="st20" d="M26.2,58.9h2.2v6h3.7v1.7h-5.9V58.9z"/>
			<path class="st20" d="M40.3,64.6c0,1.3-1.1,2.1-3.2,2.1h-4.2v-7.8h4c2,0,3,0.8,3,2c0,0.7-0.4,1.3-1,1.7
				C39.8,62.9,40.3,63.6,40.3,64.6z M35.1,60.5V62h1.5c0.7,0,1.1-0.3,1.1-0.8c0-0.5-0.4-0.7-1.1-0.7H35.1z M38.1,64.3
				c0-0.5-0.4-0.8-1.2-0.8h-1.8v1.6H37C37.7,65.1,38.1,64.8,38.1,64.3z"/>
			<path class="st20" d="M46.7,65.2h-3.3l-0.6,1.5h-2.2l3.4-7.8h2.2l3.4,7.8h-2.3L46.7,65.2z M46,63.6l-1-2.5l-1,2.5H46z"/>
			<path class="st20" d="M55.3,62.6h1.9v3.2c-0.9,0.6-2.1,1-3.3,1c-2.5,0-4.3-1.7-4.3-4c0-2.4,1.8-4,4.3-4c1.5,0,2.6,0.5,3.4,1.4
				L56,61.4c-0.5-0.6-1.1-0.9-1.9-0.9c-1.3,0-2.2,0.9-2.2,2.2c0,1.3,0.9,2.2,2.2,2.2c0.4,0,0.8-0.1,1.2-0.3V62.6z"/>
			<path class="st20" d="M66,58.9v7.8h-2.2v-3h-3v3h-2.2v-7.8h2.2v2.9h3v-2.9H66z"/>
			<path class="st20" d="M70.5,65.8l0.4-0.9c0.6,0.5,1.6,0.9,2.6,0.9c1.3,0,1.9-0.5,1.9-1.2c0-1.9-4.7-0.7-4.7-3.6
				c0-1.2,0.9-2.2,3-2.2c0.9,0,1.9,0.2,2.5,0.7l-0.4,0.9c-0.7-0.4-1.4-0.6-2.1-0.6c-1.3,0-1.9,0.6-1.9,1.2c0,1.9,4.7,0.7,4.7,3.6
				c0,1.2-1,2.2-3,2.2C72.3,66.8,71.1,66.4,70.5,65.8z"/>
			<path class="st20" d="M78.1,58.9h1.1v7.8h-1.1V58.9z"/>
			<path class="st20" d="M88.2,58.9v7.8h-0.9l-4.7-5.8v5.8h-1.1v-7.8h0.9l4.7,5.8v-5.8H88.2z"/>
			<path class="st20" d="M95.9,62.8H97v3c-0.8,0.7-1.9,1-2.9,1c-2.4,0-4.1-1.7-4.1-4c0-2.3,1.8-4,4.2-4c1.2,0,2.3,0.4,3,1.2
				l-0.7,0.7c-0.6-0.6-1.4-0.9-2.3-0.9c-1.8,0-3.1,1.3-3.1,3c0,1.7,1.3,3,3.1,3c0.7,0,1.3-0.1,1.8-0.5V62.8z"/>
			<path class="st20" d="M105.8,58.9v7.8h-1.1v-3.5h-4.5v3.5h-1.1v-7.8h1.1v3.3h4.5v-3.3H105.8z"/>
			<path class="st20" d="M116.8,66.8l-1-1c-0.7,0.7-1.6,1-2.6,1c-1.6,0-2.7-0.8-2.7-2c0-1,0.5-1.6,1.9-2.4c-0.7-0.7-0.9-1.2-0.9-1.8
				c0-1,0.8-1.7,2.1-1.7c1.2,0,1.9,0.6,1.9,1.6c0,0.8-0.5,1.4-1.7,2l1.9,1.9c0.2-0.4,0.4-0.9,0.5-1.4l0.9,0.3
				c-0.1,0.7-0.4,1.3-0.7,1.8l1,1L116.8,66.8z M115.1,65.2l-2.2-2.2c-1.1,0.6-1.4,1.1-1.4,1.7c0,0.7,0.7,1.2,1.7,1.2
				C114,65.9,114.6,65.6,115.1,65.2z M112.4,60.6c0,0.4,0.2,0.7,0.8,1.3c1-0.6,1.4-0.9,1.4-1.4c0-0.5-0.4-0.9-1-0.9
				C112.8,59.6,112.4,60,112.4,60.6z"/>
			<path class="st20" d="M9.4,77H5.3l-0.9,1.9H3.3l3.5-7.8h1.1l3.5,7.8h-1.2L9.4,77z M9.1,76.1l-1.7-3.8l-1.7,3.8H9.1z"/>
			<path class="st20" d="M19.8,78.9l0-5.7L17,78h-0.5l-2.8-4.7v5.6h-1.1v-7.8h0.9l3.2,5.5l3.2-5.5h0.9l0,7.8H19.8z"/>
			<path class="st20" d="M28.2,77H24l-0.9,1.9H22l3.5-7.8h1.1l3.5,7.8H29L28.2,77z M27.8,76.1l-1.7-3.8l-1.7,3.8H27.8z"/>
			<path class="st20" d="M38,71.2v7.8h-0.9l-4.7-5.8v5.8h-1.1v-7.8h0.9l4.7,5.8v-5.8H38z"/>
			<path class="st20" d="M40.4,71.2h3.3c2.5,0,4.2,1.6,4.2,3.9s-1.7,3.9-4.2,3.9h-3.3V71.2z M43.6,78c1.9,0,3.2-1.2,3.2-2.9
				c0-1.7-1.2-2.9-3.2-2.9h-2.1V78H43.6z"/>
			<path class="st20" d="M55.2,78v1h-5.6v-7.8H55v1h-4.4v2.4h3.9v0.9h-3.9V78H55.2z"/>
			<path class="st20" d="M62.6,78v1H57v-7.8h5.5v1h-4.4v2.4H62v0.9h-3.9V78H62.6z"/>
			<path class="st20" d="M70.7,73.9c0,1.7-1.2,2.7-3.2,2.7h-1.9v2.4h-1.1v-7.8h3C69.5,71.2,70.7,72.2,70.7,73.9z M69.6,73.9
				c0-1.1-0.7-1.7-2.2-1.7h-1.9v3.5h1.9C68.8,75.6,69.6,75,69.6,73.9z"/>
			<path class="st20" d="M82.3,78.9l0-4.1l-2,3.4h-1l-2-3.2v4h-2v-7.8h1.8l2.7,4.5l2.7-4.5h1.8l0,7.8H82.3z"/>
			<path class="st20" d="M91.1,77.4h-3.3l-0.6,1.5h-2.2l3.4-7.8h2.2l3.4,7.8h-2.3L91.1,77.4z M90.4,75.8l-1-2.5l-1,2.5H90.4z"/>
			<path class="st20" d="M102,71.2v7.8h-1.8l-3.4-4.1v4.1h-2.2v-7.8h1.8l3.4,4.1v-4.1H102z"/>
			<path class="st20" d="M108.7,74.9h1.9v3.2c-0.9,0.6-2.1,1-3.3,1c-2.5,0-4.3-1.7-4.3-4c0-2.4,1.8-4,4.3-4c1.5,0,2.6,0.5,3.4,1.4
				l-1.4,1.3c-0.5-0.6-1.1-0.9-1.9-0.9c-1.3,0-2.2,0.9-2.2,2.2c0,1.3,0.9,2.2,2.2,2.2c0.4,0,0.8-0.1,1.2-0.3V74.9z"/>
			<path class="st20" d="M117.3,77.4H114l-0.6,1.5h-2.2l3.4-7.8h2.2l3.4,7.8h-2.3L117.3,77.4z M116.6,75.8l-1-2.5l-1,2.5H116.6z"/>
			<path class="st20" d="M122.1,72.9h-2.4v-1.7h7v1.7h-2.4v6h-2.2V72.9z"/>
		</g>
	</g>
	<g>
		<polyline class="st21" points="49.9,24.8 26.1,24.8 26.1,54.3 		"/>
		<polyline class="st21" points="100.2,54.3 100.2,24.8 78,24.8 		"/>
		<polyline class="st21" points="26.1,82.5 26.1,88.6 100.2,88.6 100.2,82.5 		"/>
	</g>
	<polygon class="st22" points="67,34.4 56.1,37.3 56.1,19.3 67,16.4 	"/>
	<polygon class="st22" points="65.6,36.2 75.7,42 75.7,53.8 65.6,53.8 	"/>
	<path class="st20" d="M68.9,53.2h2.7V48l-2.7-1.6V53.2z M66.4,43.7v-6.4l-1.9-1.1v7.5H66.4z M72.7,41v12.2h2.4V42.3L72.7,41z
		 M53.6,38.6l-1.8,0.5v14.1h1.8V38.6z M54.8,37.2l6.8-1.8c0.3-0.1,0.6,0.1,0.7,0.4c0.1,0.3-0.1,0.6-0.4,0.7l-7.1,1.9v14.9h13.1v-7.8
		h0c0-0.1,0-0.2,0.1-0.3c0.2-0.3,0.5-0.4,0.8-0.2l3,1.7v-6.4l-4.1-2.4v6.3c0,0.3-0.2,0.6-0.6,0.6h-3c-0.3,0-0.6-0.2-0.6-0.6v-9.1
		c0-0.3,0.2-0.6,0.6-0.6c0.1,0,0.2,0,0.3,0.1l2.2,1.2V23.9L54.8,27V37.2z M67.5,24.1l0,12.5l4.1,2.4V26.5L67.5,24.1z M44.6,54.3
		c-0.3,0-0.6-0.2-0.6-0.6s0.2-0.6,0.6-0.6h6.1V39.4l-0.9,0.2c-0.3,0.1-0.6-0.1-0.7-0.4c-0.1-0.3,0.1-0.6,0.4-0.7l1.2-0.3v-7.2
		c0-0.3,0.2-0.6,0.6-0.6s0.6,0.2,0.6,0.6v6.9l1.8-0.5V26.6c0-0.3,0.2-0.5,0.4-0.5l12.7-3.4c0.2,0,0.3,0,0.5,0.1l4.4,2.5v-1.6
		c0-0.3,0.2-0.6,0.6-0.6c0.3,0,0.6,0.2,0.6,0.6v2.3l3.3,1.9c0.3,0.2,0.4,0.5,0.2,0.8c-0.2,0.3-0.5,0.4-0.8,0.2l-2.8-1.6v12.5
		l3.2,1.9c0.2,0.1,0.3,0.3,0.3,0.5h0v11.2h9.2c0.3,0,0.6,0.2,0.6,0.6s-0.2,0.6-0.6,0.6h-9.7h-3.5h-3.8H54.2h-2.9H44.6z"/>
</g>
</svg>
